<svg width="44" height="42" viewBox="0 0 44 42" fill="none" xmlns="http://www.w3.org/2000/svg">
<rect x="3" y="9" width="38" height="24" fill="black"/>
<path fill-rule="evenodd" clip-rule="evenodd" d="M3.47465 0.204431C2.16111 0.582333 0.944235 1.79592 0.330092 3.34045L0 4.17072V20.9956V37.8205L0.363721 38.6951C1.02701 40.2906 2.29488 41.4593 3.75994 41.8257C4.68308 42.0566 38.3652 42.0588 39.3008 41.8279C41.3035 41.334 42.7913 39.4812 43.1272 37.0628C43.2848 35.9284 43.2848 6.06287 43.1272 4.92843C42.7955 2.54075 41.3087 0.626955 39.4249 0.163026C38.4411 -0.0792527 4.32407 -0.0398964 3.47465 0.204431ZM28.7573 12.3981L29.5995 13.3835L22.3926 21.8811L15.1858 30.3785L14.3324 29.3462L13.479 28.3137L20.638 19.867C24.5756 15.2213 27.8237 11.4186 27.8561 11.4166C27.8885 11.4145 28.294 11.8562 28.7573 12.3981ZM14.5191 19.0205L12.9663 20.8553L13.8369 21.8739L14.7074 22.8923L13.838 23.9175L12.9685 24.9425L11.293 22.9712C10.3713 21.8868 9.61732 20.9639 9.61732 20.9201C9.61732 20.8764 10.685 19.5683 11.9899 18.0132L14.3624 15.1859L15.2171 16.1858L16.0718 17.1857L14.5191 19.0205ZM31.7976 18.7625C32.7027 19.8275 33.4435 20.767 33.4435 20.8499C33.4435 21.0934 28.9086 26.3357 28.6981 26.3357C28.5926 26.3357 28.1886 25.931 27.8001 25.4362L27.0938 24.5368L28.3141 23.0696C28.9854 22.2628 29.6602 21.4777 29.8137 21.325C29.9672 21.1724 30.0929 20.9716 30.0929 20.879C30.0929 20.7863 29.7175 20.2644 29.2588 19.7193L28.4246 18.7282L29.2241 17.7771C29.6639 17.2539 30.0525 16.826 30.0877 16.826C30.1228 16.826 30.8923 17.6974 31.7976 18.7625Z" fill="white"/>
</svg>
